<svg xmlns="http://www.w3.org/2000/svg" viewBox="0 0 48 48" width="48" height="48">
  <rect width="48" height="48" rx="10" fill="#1c1c1c"/>
  <path d="M24,38 C24,38 7,28 7,18 C7,12 11,8.5 16.5,8.5 C19.5,8.5 22.5,10.5 24,13 C25.5,10.5 28.5,8.5 31.5,8.5 C37,8.5 41,12 41,18 C41,28 24,38 24,38 Z" fill="#2563eb"/>
  <path d="M17,16 C15.5,16 14,17.5 14,19.5 C14,22 17,25 17,25 C17,25 20,22 20,19.5 C20,17.5 18.5,16 17,16 Z" fill="#1e3a8a" opacity="0.7"/>
  <circle cx="19" cy="14.5" r="2" fill="white" opacity="0.18"/>
</svg>
